<?xml version="1.0" encoding="UTF-8" standalone="no"?>
<!DOCTYPE svg PUBLIC "-//W3C//DTD SVG 1.1//EN" "http://www.w3.org/Graphics/SVG/1.1/DTD/svg11.dtd">
<svg xmlns="http://www.w3.org/2000/svg" version="1.1" viewBox="0.00 0.00 1000.00 1000.00">
<path fill="#ed9db2" d="
  M 842.08 842.15
  Q 834.49 849.75 831.89 852.38
  Q 828.01 856.32 824.13 860.13
  Q 803.48 880.44 797.23 886.73
  Q 731.05 953.31 726.19 957.94
  C 718.87 964.93 712.10 972.88 703.81 980.07
  Q 702.56 981.15 701.58 981.67
  Q 700.90 982.03 698.90 982.03
  Q 505.73 981.98 298.30 981.98
  A 1.77 1.76 -23.0 0 1 297.08 981.49
  C 292.96 977.52 288.22 973.22 284.27 969.17
  Q 276.19 960.87 273.55 958.26
  Q 260.22 945.01 213.42 898.29
  Q 185.94 870.86 180.09 864.61
  Q 178.46 862.87 177.06 861.65
  C 171.34 856.67 166.27 850.94 160.87 845.61
  Q 159.36 844.12 104.02 788.94
  Q 94.90 779.85 71.62 756.20
  Q 66.83 751.33 63.52 748.33
  Q 60.43 745.52 59.36 744.21
  Q 57.46 741.87 55.24 739.74
  Q 50.83 735.50 43.60 728.65
  C 42.04 727.17 40.28 724.54 38.45 722.83
  Q 27.58 712.65 17.53 701.92
  A 2.01 2.00 -66.8 0 1 16.98 700.54
  L 17.03 298.00
  A 1.61 1.49 -21.6 0 1 17.60 296.82
  C 19.41 295.30 22.57 292.73 24.86 290.12
  C 28.09 286.42 33.05 281.88 35.55 279.34
  Q 45.79 268.99 157.44 157.36
  Q 269.10 45.73 279.45 35.49
  C 281.99 32.99 286.53 28.03 290.23 24.81
  C 292.84 22.52 295.41 19.36 296.93 17.55
  A 1.61 1.49 -68.4 0 1 298.11 16.98
  L 700.65 17.01
  A 2.01 2.00 -23.2 0 1 702.03 17.56
  Q 712.76 27.62 722.94 38.49
  C 724.65 40.32 727.28 42.08 728.76 43.64
  Q 735.61 50.87 739.85 55.28
  Q 741.98 57.50 744.31 59.40
  Q 745.62 60.47 748.43 63.56
  Q 751.43 66.88 756.30 71.67
  Q 779.95 94.95 789.03 104.07
  Q 844.20 159.43 845.69 160.94
  C 851.02 166.34 856.75 171.41 861.73 177.13
  Q 862.95 178.53 864.69 180.16
  Q 870.94 186.01 898.36 213.50
  Q 945.07 260.31 958.32 273.64
  Q 960.93 276.28 969.23 284.36
  C 973.28 288.31 977.57 293.05 981.54 297.18
  A 1.77 1.76 -67.0 0 1 982.03 298.40
  Q 981.99 505.83 982.00 699.00
  Q 982.00 701.00 981.64 701.68
  Q 981.12 702.66 980.03 703.90
  C 972.84 712.19 964.89 718.96 957.90 726.28
  Q 953.27 731.14 886.67 797.30
  Q 880.38 803.55 860.07 824.20
  Q 856.26 828.08 852.32 831.96
  Q 849.69 834.56 842.08 842.15
  Z
  M 171.21 171.27
  Q 66.88 275.63 47.11 295.36
  Q 41.59 300.87 36.11 306.46
  A 3.94 3.90 67.5 0 0 34.99 309.21
  Q 35.06 436.41 35.00 688.77
  Q 35.00 691.95 36.60 694.05
  C 38.31 696.30 41.83 698.55 44.62 701.37
  Q 45.61 702.38 46.57 703.42
  Q 48.45 705.47 297.72 954.71
  Q 297.78 954.77 301.43 958.15
  Q 304.00 960.54 306.02 963.31
  C 307.25 965.01 307.92 965.02 310.00 965.02
  Q 500.25 964.98 690.24 964.97
  A 3.35 3.33 -67.4 0 0 692.60 963.99
  Q 760.55 895.99 828.32 828.21
  Q 896.09 760.42 964.07 692.45
  A 3.35 3.33 -22.6 0 0 965.05 690.09
  Q 965.00 500.10 964.99 309.85
  C 964.99 307.77 964.98 307.10 963.28 305.87
  Q 960.51 303.85 958.12 301.28
  Q 954.74 297.63 954.68 297.57
  Q 705.37 48.37 703.32 46.49
  Q 702.28 45.53 701.27 44.54
  C 698.45 41.75 696.20 38.23 693.95 36.52
  Q 691.85 34.92 688.67 34.92
  Q 436.31 35.05 309.11 35.02
  A 3.94 3.90 22.5 0 0 306.36 36.14
  Q 300.77 41.62 295.26 47.14
  Q 275.54 66.92 171.21 171.27
  Z"
/>
<path fill="#541e24" d="
  M 640.57 111.51
  Q 638.52 111.94 638.06 111.94
  Q 521.20 112.11 355.76 111.94
  A 1.31 1.30 75.8 0 1 354.61 111.25
  C 353.09 108.38 351.42 105.01 350.27 101.87
  Q 344.24 85.32 335.72 65.56
  A 0.62 0.62 0.0 0 1 336.25 64.69
  C 339.68 64.47 343.83 64.00 347.60 64.00
  Q 606.76 63.99 654.00 64.03
  Q 657.18 64.03 659.30 64.50
  Q 660.72 64.82 660.18 66.17
  Q 659.26 68.47 654.28 81.25
  Q 651.69 87.89 648.06 95.88
  Q 644.55 103.59 641.69 110.59
  A 1.56 1.54 -84.0 0 1 640.57 111.51
  Z"
/>
<path fill="#2b1216" d="
  M 677.13 129.49
  Q 675.92 129.24 673.47 126.76
  Q 671.03 124.30 669.87 122.21
  A 1.10 1.07 -50.9 0 1 669.79 121.30
  Q 673.24 111.42 675.69 105.98
  Q 676.06 105.15 677.20 104.75
  Q 677.66 104.59 677.72 104.11
  Q 677.91 102.66 678.44 101.20
  Q 683.34 87.61 689.29 74.94
  Q 689.50 74.49 689.88 74.80
  Q 695.65 79.50 699.82 83.80
  Q 705.41 89.56 707.12 91.26
  Q 731.08 115.06 789.35 173.15
  C 790.99 174.78 793.58 176.98 795.06 179.78
  C 795.78 181.13 795.08 182.30 794.13 183.14
  Q 791.53 185.45 787.73 189.23
  Q 768.45 208.36 761.91 214.24
  Q 761.54 214.57 761.19 214.22
  Q 698.14 151.06 681.46 134.54
  Q 678.37 131.48 677.84 130.09
  Q 677.65 129.60 677.13 129.49
  Z"
/>
<path fill="#5c2223" d="
  M 308.57 140.56
  Q 307.51 141.01 306.25 142.37
  Q 298.34 150.94 290.61 158.30
  Q 290.49 158.41 289.09 159.34
  C 288.30 159.87 288.05 160.77 287.49 161.38
  Q 279.48 170.10 271.82 176.83
  Q 270.55 177.95 269.38 179.48
  Q 268.00 181.28 266.98 182.23
  Q 256.38 192.03 248.09 201.09
  Q 245.70 203.69 242.99 205.44
  A 2.40 1.31 -75.4 0 0 242.33 206.14
  Q 242.00 206.64 241.11 207.61
  Q 234.83 214.40 228.10 221.07
  C 226.97 222.19 225.89 222.70 224.62 223.43
  C 223.30 224.19 222.28 226.89 221.47 227.71
  Q 215.08 234.14 206.08 242.59
  Q 205.91 242.75 203.41 245.60
  Q 201.81 247.42 200.66 248.49
  Q 191.70 256.78 183.10 266.09
  Q 181.46 267.87 179.76 269.15
  Q 178.00 270.48 176.50 272.23
  Q 173.90 275.25 167.19 281.93
  Q 162.52 286.57 161.23 287.53
  Q 159.48 288.83 158.31 290.44
  Q 157.11 292.09 155.59 293.59
  Q 152.25 296.86 142.06 306.56
  C 140.45 308.08 138.78 310.57 137.01 312.18
  Q 130.23 318.32 123.76 324.90
  A 1.94 1.93 -56.0 0 1 121.62 325.32
  Q 104.89 318.12 88.89 312.14
  Q 81.50 309.38 76.24 305.61
  Q 75.09 304.79 76.09 303.79
  Q 201.63 178.33 301.68 78.18
  Q 302.80 77.07 303.72 76.50
  A 0.92 0.92 0.0 0 1 305.00 76.84
  Q 307.17 80.72 308.96 84.25
  C 311.56 89.36 313.03 94.38 314.89 99.64
  Q 315.84 102.31 317.86 107.22
  Q 319.26 110.63 324.21 123.36
  Q 324.40 123.83 324.06 124.20
  Q 316.30 132.75 310.19 138.93
  Q 308.60 140.55 308.57 140.56
  Z"
/>
<path fill="#541e24" d="
  M 372.15 151.34
  Q 371.55 150.78 371.32 150.35
  Q 367.98 144.23 364.88 135.41
  Q 364.39 134.02 365.87 134.02
  Q 385.89 133.98 480.00 134.01
  Q 482.56 134.01 485.80 134.27
  A 1.25 1.25 0.0 0 1 486.95 135.49
  Q 487.36 160.51 486.10 179.90
  Q 486.02 181.12 485.93 181.67
  A 1.58 1.58 0.0 0 1 484.38 183.00
  Q 474.80 183.01 387.32 182.98
  Q 385.59 182.98 384.89 181.47
  Q 378.25 167.03 372.77 152.42
  Q 372.47 151.63 372.15 151.34
  Z"
/>
<path fill="#541e24" d="
  M 613.19 178.09
  Q 612.23 178.50 612.19 179.54
  C 612.08 182.17 610.99 182.99 608.31 182.99
  Q 564.25 183.01 512.67 182.99
  Q 511.71 182.99 511.37 182.10
  Q 510.80 180.64 510.82 178.50
  Q 510.82 177.83 511.06 134.54
  Q 511.06 134.03 511.56 134.03
  Q 592.32 133.98 626.00 133.99
  Q 628.72 133.99 630.90 134.25
  Q 631.41 134.31 631.29 134.81
  C 630.50 137.91 628.81 140.81 627.96 143.11
  Q 625.91 148.60 623.87 154.09
  C 623.21 155.85 621.73 158.04 620.97 160.13
  Q 616.70 171.74 614.50 176.77
  Q 614.10 177.70 613.19 178.09
  Z"
/>
<path fill="#2b1216" d="
  M 712.36 264.23
  L 642.23 194.10
  Q 641.65 193.52 641.97 192.76
  Q 649.58 174.95 655.92 157.15
  C 657.18 153.61 659.02 150.36 660.44 146.56
  A 1.57 1.57 0.0 0 1 662.92 145.90
  Q 668.94 150.96 674.21 156.28
  Q 681.36 163.51 681.44 163.58
  Q 693.44 175.37 704.14 186.02
  Q 732.73 214.47 747.41 229.18
  A 0.98 0.98 0.0 0 1 747.41 230.57
  L 713.76 264.23
  A 0.99 0.99 0.0 0 1 712.36 264.23
  Z"
/>
<path fill="#5c2223" d="
  M 146.89 333.26
  Q 147.53 331.91 148.47 330.72
  Q 149.64 329.24 157.58 321.32
  Q 197.89 281.07 210.02 268.77
  Q 212.32 266.44 213.89 264.89
  Q 247.08 232.08 319.85 159.35
  Q 328.16 151.05 332.34 147.78
  Q 332.92 147.33 333.20 148.01
  C 333.80 149.46 334.22 151.01 334.95 152.40
  Q 339.00 160.05 341.08 165.65
  C 344.04 173.64 349.24 185.24 352.31 194.75
  Q 352.43 195.13 352.17 195.44
  Q 344.17 204.78 334.07 214.06
  Q 333.27 214.80 319.04 229.20
  Q 314.24 234.05 309.39 238.71
  C 304.92 243.01 300.85 247.55 296.67 251.55
  C 287.49 260.36 276.09 272.22 265.14 282.99
  Q 257.72 290.28 252.07 296.16
  Q 248.57 299.81 244.07 303.98
  C 240.65 307.17 236.93 311.46 233.63 314.64
  Q 220.14 327.65 206.18 342.19
  Q 203.26 345.24 198.97 349.21
  Q 197.19 350.86 195.05 352.06
  Q 194.61 352.31 194.11 352.25
  Q 192.11 352.03 190.87 351.64
  Q 183.94 349.49 179.80 347.76
  Q 166.56 342.23 163.02 340.75
  Q 158.43 338.85 154.91 337.12
  Q 149.14 334.30 147.00 333.52
  A 0.19 0.19 0.0 0 1 146.89 333.26
  Z"
/>
<path fill="#2b1216" d="
  M 920.29 304.39
  C 915.56 307.04 912.26 309.46 907.52 311.25
  Q 892.28 316.98 873.86 324.94
  Q 873.51 325.09 873.23 324.83
  Q 871.26 323.04 870.35 322.15
  Q 861.33 313.36 803.92 255.75
  Q 793.65 245.45 783.64 235.92
  Q 781.07 233.46 781.64 232.47
  Q 781.97 231.90 783.27 230.52
  Q 801.29 211.57 810.68 201.91
  Q 813.68 198.82 816.33 200.04
  Q 817.62 200.64 820.26 203.41
  Q 823.29 206.59 825.32 208.57
  Q 839.27 222.25 856.14 239.17
  Q 910.63 293.85 916.79 300.13
  Q 917.54 300.90 920.35 304.05
  A 0.22 0.22 0.0 0 1 920.29 304.39
  Z"
/>
<path fill="#541e24" d="
  M 578.70 256.00
  L 416.73 256.00
  A 1.26 1.26 0.0 0 1 415.56 255.21
  L 396.73 208.73
  A 1.26 1.26 0.0 0 1 397.90 207.00
  L 598.97 207.03
  A 1.26 1.26 0.0 0 1 600.12 208.79
  L 579.86 255.24
  A 1.26 1.26 0.0 0 1 578.70 256.00
  Z"
/>
<path fill="#2b1216" d="
  M 636.06 219.32
  L 695.47 278.99
  A 1.89 1.89 0.0 0 1 695.46 281.66
  L 661.88 315.11
  A 1.89 1.89 0.0 0 1 659.21 315.10
  L 614.04 269.72
  A 1.89 1.89 0.0 0 1 613.63 267.67
  L 632.97 219.94
  A 1.89 1.89 0.0 0 1 636.06 219.32
  Z"
/>
<path fill="#5c2223" d="
  M 334.81 317.42
  Q 332.42 315.63 332.07 315.28
  Q 323.50 306.40 321.49 304.47
  Q 314.21 297.47 307.41 290.38
  C 305.31 288.18 302.52 286.27 300.98 283.88
  Q 299.80 282.05 301.53 280.28
  Q 326.31 254.93 361.31 220.66
  A 0.63 0.63 0.0 0 1 362.32 220.85
  C 364.08 224.69 366.20 228.07 367.51 232.12
  Q 370.27 240.70 373.51 246.83
  C 376.45 252.40 377.64 256.50 380.10 263.54
  C 380.81 265.55 382.04 267.55 383.01 269.58
  Q 383.22 270.03 382.91 270.42
  Q 380.19 273.84 379.01 275.01
  Q 360.70 293.13 341.89 312.10
  C 339.81 314.21 337.55 315.77 335.11 317.43
  A 0.27 0.26 46.0 0 1 334.81 317.42
  Z"
/>
<path fill="#2b1216" d="
  M 798.64 350.29
  Q 773.64 325.74 769.04 321.13
  Q 753.49 305.57 753.44 305.52
  Q 738.53 290.41 731.22 282.66
  Q 730.79 282.20 731.22 281.75
  Q 746.79 265.43 763.80 249.28
  Q 765.51 247.66 767.22 249.28
  C 769.34 251.29 774.91 256.45 778.56 260.47
  Q 780.25 262.32 781.78 263.72
  Q 782.83 264.69 790.58 272.38
  Q 794.97 276.75 802.66 284.61
  C 808.20 290.29 812.23 294.01 817.53 299.57
  Q 820.35 302.53 823.96 306.11
  Q 837.49 319.51 848.36 331.10
  Q 849.37 332.17 849.64 332.58
  Q 850.15 333.36 849.31 333.75
  Q 833.97 340.99 813.04 349.04
  Q 810.43 350.05 803.00 352.00
  Q 800.66 352.62 799.39 351.15
  Q 798.71 350.35 798.64 350.29
  Z"
/>
<path fill="#2b1216" d="
  M 743.80 327.97
  Q 745.67 329.30 747.72 331.51
  Q 755.53 339.91 763.58 347.52
  C 767.51 351.24 772.03 356.22 775.42 360.34
  A 0.66 0.66 0.0 0 1 775.22 361.34
  C 773.20 362.43 769.94 364.43 767.02 365.53
  Q 761.04 367.80 757.68 368.98
  Q 753.62 370.41 748.60 373.02
  Q 740.06 377.47 728.50 380.72
  Q 727.01 381.14 726.15 381.22
  Q 724.92 381.33 724.45 380.94
  Q 720.36 377.56 718.35 375.14
  Q 714.82 370.89 712.64 368.86
  Q 707.53 364.10 702.43 359.34
  Q 700.67 357.69 699.19 355.67
  Q 697.21 352.97 696.28 352.23
  Q 688.50 346.03 680.35 336.40
  Q 678.77 334.54 680.23 332.73
  Q 681.48 331.19 683.21 329.46
  Q 710.23 302.51 712.12 300.62
  Q 714.48 298.25 717.41 301.07
  Q 719.37 302.95 721.71 305.95
  Q 723.19 307.86 726.18 310.39
  Q 734.19 317.21 740.46 324.95
  Q 741.68 326.46 743.80 327.97
  Z"
/>
<path fill="#5c2223" d="
  M 227.90 353.43
  Q 229.12 351.80 230.72 350.22
  Q 249.51 331.68 264.85 316.11
  Q 269.60 311.29 271.22 309.84
  C 274.39 306.99 276.87 303.09 280.66 300.98
  A 2.54 2.54 0.0 0 1 283.95 301.73
  Q 287.79 307.15 291.66 310.23
  Q 295.10 312.96 297.88 316.06
  Q 299.29 317.62 306.67 325.30
  Q 306.94 325.58 311.93 329.99
  Q 314.03 331.86 315.76 334.34
  Q 317.05 336.17 315.65 337.65
  C 305.88 347.96 293.93 359.26 283.24 370.24
  Q 274.38 379.34 270.44 383.00
  Q 270.07 383.34 269.57 383.27
  Q 267.98 383.04 266.81 382.41
  Q 264.76 381.31 264.27 381.14
  Q 256.61 378.39 252.86 376.93
  Q 249.44 375.60 241.67 372.02
  Q 233.15 368.10 222.67 364.54
  Q 220.73 363.88 220.20 363.07
  Q 219.13 361.42 220.62 360.14
  Q 224.08 357.18 224.99 356.47
  Q 226.52 355.26 227.90 353.43
  Z"
/>
<path fill="#a61b29" d="
  M 476.47 498.84
  Q 477.79 497.60 476.50 496.35
  Q 474.77 494.67 456.67 476.33
  Q 453.23 472.84 449.98 469.17
  Q 445.73 464.37 445.38 464.02
  Q 429.70 448.41 413.56 432.27
  C 406.65 425.37 400.02 418.75 395.98 411.31
  Q 389.69 399.73 391.18 385.76
  Q 391.66 381.26 393.38 376.95
  Q 403.17 352.43 425.68 341.18
  Q 436.66 335.68 449.27 336.23
  Q 456.43 336.53 462.40 339.10
  Q 467.75 341.41 474.08 346.46
  Q 480.07 351.26 484.93 356.31
  Q 493.06 364.77 499.75 371.95
  Q 500.61 372.88 501.48 371.95
  Q 508.86 363.97 517.26 354.76
  Q 520.09 351.67 525.26 347.27
  Q 539.03 335.57 557.24 336.40
  Q 566.83 336.85 575.32 341.22
  Q 585.79 346.62 594.22 355.49
  Q 603.56 365.34 608.02 378.57
  Q 612.05 390.54 608.84 401.44
  Q 605.84 411.64 597.91 420.93
  C 588.87 431.52 576.27 443.25 568.11 451.75
  C 552.01 468.50 546.43 474.58 535.12 485.62
  Q 528.87 491.73 523.94 497.61
  Q 523.66 497.95 523.97 498.26
  Q 527.56 501.81 538.83 513.09
  Q 543.76 518.02 552.03 526.88
  C 564.52 540.26 576.48 551.69 590.43 565.69
  Q 598.15 573.44 603.26 581.34
  Q 607.76 588.31 609.65 598.55
  Q 610.04 600.69 609.82 603.52
  C 609.66 605.51 609.89 607.84 609.53 610.21
  Q 607.95 620.66 600.96 631.20
  C 592.40 644.12 578.61 654.94 563.26 658.49
  Q 560.25 659.19 554.43 659.15
  Q 549.38 659.11 545.69 658.20
  Q 532.39 654.88 522.59 645.40
  Q 508.32 631.61 500.47 624.55
  A 0.89 0.88 42.2 0 0 499.23 624.61
  Q 487.69 636.95 476.51 647.20
  Q 462.22 660.31 441.06 658.95
  Q 435.69 658.61 427.20 654.62
  Q 404.23 643.85 394.09 619.93
  C 388.19 606.03 390.81 590.60 399.71 578.46
  Q 403.01 573.95 414.54 561.78
  Q 420.03 555.98 442.87 533.62
  Q 451.13 525.54 465.41 509.96
  C 469.00 506.04 473.49 501.64 476.47 498.84
  Z
  M 542.45 416.05
  Q 532.24 426.50 517.27 439.99
  Q 517.08 440.17 516.89 439.99
  Q 508.04 431.74 501.66 423.84
  A 0.87 0.87 0.0 0 0 500.35 423.79
  Q 492.27 432.43 483.76 438.88
  A 0.86 0.86 0.0 0 1 482.65 438.82
  L 458.83 416.20
  Q 457.91 415.33 458.77 414.40
  Q 465.35 407.26 472.69 401.43
  Q 474.23 400.20 475.77 398.60
  Q 476.11 398.25 475.77 397.90
  Q 464.46 386.36 455.30 377.31
  C 451.79 373.85 447.46 370.47 442.98 370.80
  Q 436.46 371.30 431.73 376.93
  C 427.44 382.03 426.78 389.36 430.60 395.10
  Q 432.47 397.91 434.06 399.54
  C 442.63 408.26 454.96 420.19 465.17 431.02
  Q 481.71 448.55 499.91 466.26
  A 0.94 0.94 0.0 0 0 501.23 466.26
  Q 518.12 449.65 529.15 437.77
  Q 535.78 430.63 543.03 423.40
  Q 559.09 407.36 564.32 402.08
  C 567.58 398.80 572.58 393.29 572.89 388.49
  C 573.51 378.73 566.32 372.13 556.80 370.71
  Q 554.48 370.37 552.73 371.46
  Q 549.16 373.71 544.96 377.96
  Q 535.23 387.83 526.03 397.02
  A 0.86 0.86 0.0 0 0 526.05 398.25
  Q 534.78 406.46 542.46 415.74
  A 0.24 0.24 0.0 0 1 542.45 416.05
  Z
  M 483.90 555.71
  Q 491.34 563.37 500.69 571.19
  A 0.96 0.96 0.0 0 0 502.00 571.12
  Q 509.01 563.77 515.78 555.36
  A 1.27 1.27 0.0 0 1 517.67 555.26
  L 542.23 579.81
  A 0.74 0.74 0.0 0 1 542.21 580.88
  Q 532.92 589.42 525.54 598.35
  Q 525.21 598.74 525.60 599.07
  Q 527.53 600.71 527.91 601.09
  Q 539.82 612.69 544.59 617.65
  Q 549.06 622.29 553.09 623.65
  C 561.85 626.61 570.63 620.40 572.55 611.60
  C 573.89 605.44 572.22 602.15 567.85 597.66
  C 559.23 588.82 549.16 577.57 539.34 567.93
  Q 533.31 562.01 509.21 537.32
  Q 504.06 532.04 500.04 528.80
  Q 499.53 528.39 499.11 528.88
  Q 496.91 531.41 482.80 546.66
  Q 478.88 550.90 468.72 560.86
  Q 450.47 578.76 431.22 599.73
  Q 428.89 602.27 428.46 604.46
  C 427.45 609.51 428.27 614.31 431.81 618.43
  C 437.79 625.38 446.30 626.48 453.42 620.39
  Q 456.31 617.91 459.00 615.01
  Q 472.32 600.63 474.97 597.79
  A 0.65 0.65 0.0 0 0 474.96 596.88
  L 458.68 580.60
  Q 457.88 579.80 458.68 579.00
  Q 467.91 569.72 483.14 555.69
  Q 483.53 555.33 483.90 555.71
  Z"
/>
<path fill="#5a1216" d="
  M 101.83 355.41
  Q 105.01 357.01 108.70 358.32
  Q 109.00 358.42 109.00 358.74
  L 109.00 488.50
  Q 109.00 489.00 108.50 489.00
  L 61.29 489.00
  A 0.29 0.29 0.0 0 1 61.00 488.71
  Q 61.00 354.59 61.06 345.75
  Q 61.08 342.83 61.37 340.02
  A 0.42 0.42 0.0 0 1 61.89 339.65
  C 65.95 340.62 69.35 341.59 73.83 343.57
  Q 77.97 345.40 87.01 348.75
  Q 93.02 350.97 101.83 355.41
  Z"
/>
<path fill="#500a16" d="
  M 893.46 357.55
  Q 897.97 355.71 901.84 353.78
  C 908.04 350.68 914.35 348.40 919.45 346.56
  C 925.78 344.29 932.54 339.91 939.40 339.64
  Q 940.00 339.62 940.00 340.21
  L 940.00 488.75
  A 0.25 0.24 -90.0 0 1 939.76 489.00
  L 892.24 489.00
  A 0.25 0.24 90.0 0 1 892.00 488.75
  L 892.00 359.73
  A 2.36 2.33 79.1 0 1 893.46 357.55
  Z"
/>
<path fill="#5a1216" d="
  M 142.68 373.29
  Q 156.70 378.21 174.21 386.35
  Q 177.14 387.72 180.40 389.72
  A 1.27 1.26 -74.0 0 1 180.99 390.79
  Q 181.02 455.93 180.97 486.52
  Q 180.96 487.93 180.84 488.64
  Q 180.61 489.99 179.24 489.99
  L 132.92 489.99
  Q 131.99 489.99 131.72 489.10
  Q 131.07 486.92 131.05 484.66
  Q 130.58 437.08 132.45 399.31
  Q 132.97 388.92 133.23 369.30
  A 0.63 0.63 0.0 0 1 134.00 368.70
  Q 136.67 369.35 138.83 371.12
  Q 140.61 372.57 142.68 373.29
  Z"
/>
<path fill="#500a16" d="
  M 838.07 621.57
  Q 832.84 619.41 821.81 615.38
  A 2.77 2.77 0.0 0 1 820.00 612.78
  L 820.00 391.30
  Q 820.00 390.20 820.97 389.68
  Q 825.47 387.29 829.76 385.51
  Q 847.64 378.09 861.25 373.02
  C 862.76 372.46 865.08 371.14 867.10 370.86
  Q 867.99 370.74 867.99 371.63
  Q 868.02 493.69 867.99 622.04
  Q 867.99 627.70 867.69 633.70
  A 0.44 0.43 -74.7 0 1 867.06 634.07
  Q 854.87 627.88 839.73 622.61
  Q 839.40 622.50 838.89 622.08
  Q 838.46 621.73 838.07 621.57
  Z"
/>
<path fill="#500a16" d="
  M 750.37 585.69
  Q 749.17 584.92 748.42 584.85
  A 1.81 1.56 -87.6 0 1 747.01 583.07
  L 746.99 422.19
  A 0.99 0.97 -16.2 0 1 747.46 421.36
  C 751.37 418.95 754.83 416.98 759.54 415.07
  Q 776.01 408.40 792.28 401.25
  Q 792.82 401.01 795.36 400.70
  Q 796.00 400.63 796.00 401.27
  L 796.00 602.78
  Q 796.00 603.65 795.16 603.41
  C 790.60 602.13 786.14 600.73 782.39 598.99
  Q 765.70 591.25 753.55 587.22
  Q 751.86 586.66 750.37 585.69
  Z"
/>
<path fill="#5a1216" d="
  M 248.45 585.75
  C 247.94 586.00 247.28 586.58 246.58 586.83
  Q 232.58 591.84 219.54 598.43
  Q 213.38 601.55 205.72 603.24
  Q 204.62 603.48 204.46 602.37
  Q 203.90 598.62 203.94 593.76
  Q 203.99 588.57 204.03 409.25
  Q 204.03 405.67 204.28 402.63
  A 1.90 1.89 87.7 0 1 205.86 400.91
  Q 207.58 400.64 209.61 401.51
  Q 226.99 409.03 241.99 414.50
  Q 248.43 416.84 253.59 420.20
  A 0.89 0.88 -74.0 0 1 254.00 420.95
  L 254.00 582.01
  A 1.55 1.55 0.0 0 1 253.19 583.37
  Q 251.12 584.50 248.45 585.75
  Z"
/>
<path fill="#a61b29" d="
  M 427.62 497.66
  Q 427.07 498.21 427.67 498.72
  Q 436.55 506.08 447.01 516.64
  Q 447.61 517.24 448.87 517.85
  A 0.31 0.30 -55.0 0 1 448.95 518.34
  Q 436.67 531.08 423.40 543.01
  A 0.85 0.85 0.0 0 1 422.25 542.99
  Q 412.02 533.27 402.99 522.41
  A 0.90 0.90 0.0 0 0 401.56 522.47
  Q 390.92 537.56 375.68 547.39
  Q 366.90 553.05 356.52 554.57
  Q 337.43 557.36 322.96 550.81
  C 310.61 545.21 301.57 534.25 296.91 521.76
  Q 287.55 496.70 297.31 472.60
  Q 306.62 449.61 327.40 442.87
  Q 336.61 439.88 347.12 440.10
  Q 368.87 440.57 385.72 455.84
  Q 394.37 463.67 401.24 472.74
  A 0.94 0.93 49.4 0 0 402.64 472.85
  Q 409.33 466.29 417.86 456.36
  Q 418.82 455.23 421.96 452.28
  A 2.00 2.00 0.0 0 1 424.73 452.32
  Q 435.26 462.76 446.12 473.63
  Q 447.31 474.82 448.27 476.15
  A 0.73 0.72 -40.4 0 1 448.19 477.09
  L 427.62 497.66
  Z
  M 378.36 497.88
  Q 376.48 494.88 373.70 492.12
  C 364.96 483.43 354.11 473.96 341.57 476.71
  C 333.40 478.51 328.53 483.99 326.88 492.00
  C 324.76 502.33 327.88 513.68 338.00 517.94
  C 345.55 521.13 353.60 518.57 360.19 514.39
  C 367.02 510.06 371.36 505.07 378.32 498.24
  A 0.30 0.29 52.2 0 0 378.36 497.88
  Z"
/>
<path fill="#a61b29" d="
  M 599.62 523.17
  Q 599.05 522.73 598.55 523.25
  Q 588.53 533.48 577.70 542.92
  Q 577.19 543.37 576.69 542.90
  L 552.26 519.71
  A 0.85 0.85 0.0 0 1 552.22 518.53
  Q 554.58 515.89 555.27 515.28
  Q 564.27 507.23 572.16 499.73
  Q 573.84 498.13 572.20 496.50
  L 552.82 477.11
  A 0.81 0.81 0.0 0 1 552.80 475.98
  Q 565.64 462.49 577.11 452.09
  A 0.69 0.69 0.0 0 1 578.09 452.15
  Q 580.73 455.21 584.77 458.99
  Q 585.38 459.57 598.50 471.57
  A 0.62 0.61 43.9 0 0 599.34 471.56
  Q 601.26 469.70 611.70 458.97
  Q 634.26 435.82 666.08 441.06
  Q 682.89 443.83 694.09 456.46
  C 704.00 467.62 708.96 485.18 708.47 500.01
  Q 707.96 515.64 700.94 528.73
  Q 688.57 551.81 662.59 554.98
  Q 643.03 557.36 626.72 547.75
  Q 613.85 540.17 603.05 527.24
  C 602.24 526.27 600.98 524.23 599.62 523.17
  Z
  M 622.33 497.56
  Q 622.32 497.67 622.35 497.78
  Q 622.37 497.87 622.45 497.96
  C 630.25 506.04 634.75 510.71 642.63 515.58
  C 651.17 520.87 663.18 521.26 669.66 512.67
  Q 674.88 505.77 674.92 497.84
  Q 674.96 489.90 669.82 482.95
  C 663.43 474.29 651.41 474.55 642.82 479.76
  C 634.89 484.54 630.34 489.17 622.45 497.16
  Q 622.37 497.25 622.35 497.34
  Q 622.32 497.45 622.33 497.56
  Z"
/>
<path fill="#5a1216" d="
  M 133.36 635.30
  Q 133.16 633.76 133.16 631.80
  Q 133.14 606.51 132.05 581.24
  C 131.19 561.48 130.82 542.10 130.99 522.50
  Q 131.02 519.27 131.43 516.13
  A 1.93 1.92 -89.4 0 1 133.12 514.47
  Q 135.78 514.17 139.25 514.06
  Q 143.27 513.94 172.00 514.05
  Q 175.76 514.07 178.58 514.39
  Q 180.58 514.62 180.70 516.31
  Q 180.93 519.44 180.93 520.75
  Q 181.01 537.87 181.01 612.50
  Q 181.01 614.93 179.61 616.03
  Q 179.32 616.26 176.44 617.40
  Q 167.12 621.07 166.52 621.34
  Q 161.36 623.61 153.07 626.82
  C 147.19 629.09 142.12 631.70 136.36 634.68
  C 135.65 635.04 134.61 635.23 133.64 635.48
  Q 133.40 635.54 133.36 635.30
  Z"
/>
<path fill="#5a1216" d="
  M 60.04 663.75
  L 59.99 515.78
  A 1.42 1.42 0.0 0 1 61.44 514.36
  L 106.60 515.19
  A 1.42 1.42 0.0 0 1 107.99 516.61
  L 108.01 645.28
  A 1.42 1.42 0.0 0 1 107.13 646.59
  L 62.00 665.07
  A 1.42 1.42 0.0 0 1 60.04 663.75
  Z"
/>
<path fill="#500a16" d="
  M 917.34 656.72
  Q 905.73 652.41 891.45 646.43
  Q 891.00 646.24 891.00 645.75
  L 891.00 515.52
  Q 891.00 514.98 891.54 514.98
  Q 914.15 515.20 933.73 514.38
  Q 935.27 514.31 938.26 514.66
  Q 938.77 514.72 938.83 515.23
  Q 939.05 517.28 939.05 518.00
  Q 938.98 652.34 938.93 660.85
  Q 938.92 663.32 938.59 664.68
  Q 938.32 665.81 937.23 665.40
  Q 933.16 663.86 927.22 661.03
  Q 921.24 658.17 917.34 656.72
  Z"
/>
<path fill="#33141e" d="
  M 317.78 657.54
  Q 318.02 657.80 318.11 657.91
  Q 318.43 658.29 318.08 658.64
  C 315.84 660.88 313.30 664.06 310.68 666.47
  Q 304.22 672.42 300.71 676.25
  C 295.29 682.14 290.05 686.62 284.34 692.75
  A 2.09 2.09 0.0 0 1 281.58 693.02
  Q 278.96 691.10 275.62 687.88
  C 270.08 682.52 264.87 676.69 259.87 672.00
  Q 254.55 667.01 249.91 662.08
  Q 246.05 657.98 242.22 654.36
  Q 237.73 650.14 236.48 648.78
  Q 231.37 643.23 223.48 635.71
  Q 221.57 633.89 220.97 633.13
  Q 220.32 632.30 221.24 631.79
  C 224.20 630.16 228.08 628.09 231.72 626.65
  Q 256.45 616.86 263.17 614.53
  C 264.79 613.97 267.79 612.18 270.27 611.74
  Q 270.77 611.65 271.18 611.96
  C 277.27 616.57 281.20 620.68 287.01 626.84
  Q 290.48 630.52 294.20 634.03
  C 299.92 639.43 305.40 645.67 311.62 651.37
  Q 313.45 653.05 317.78 657.54
  Z"
/>
<path fill="#2d0c13" d="
  M 649.79 694.56
  Q 650.51 693.45 650.85 693.10
  Q 655.39 688.48 663.59 680.73
  Q 666.47 678.02 670.09 673.95
  Q 672.06 671.73 674.62 669.55
  Q 677.15 667.39 679.16 665.23
  Q 685.34 658.58 689.65 654.39
  Q 696.99 647.26 699.40 644.67
  Q 704.34 639.34 709.16 634.91
  Q 710.81 633.40 718.32 625.57
  Q 723.02 620.66 727.93 616.67
  Q 728.78 615.99 729.73 615.43
  A 1.23 1.18 35.9 0 1 730.66 615.30
  Q 736.97 616.99 745.73 621.05
  Q 748.36 622.27 755.82 625.09
  Q 761.45 627.22 765.80 629.43
  Q 771.79 632.49 778.19 635.14
  A 0.35 0.35 0.0 0 1 778.31 635.70
  Q 776.80 637.35 775.70 638.45
  Q 768.58 645.57 764.26 650.49
  Q 762.79 652.16 760.95 653.69
  C 758.88 655.43 757.69 656.26 756.33 657.78
  Q 752.79 661.72 748.30 666.23
  Q 748.23 666.30 745.90 668.97
  Q 744.76 670.28 743.23 671.30
  C 740.39 673.21 738.71 675.11 736.38 677.88
  Q 734.05 680.63 732.28 682.31
  Q 725.63 688.62 722.67 691.33
  Q 720.99 692.86 719.32 695.12
  Q 717.12 698.09 716.02 699.02
  Q 707.05 706.55 699.91 714.98
  Q 698.21 716.99 696.12 718.50
  Q 693.02 720.75 692.09 721.84
  Q 684.56 730.55 675.86 738.11
  Q 673.15 740.46 671.98 742.30
  Q 670.17 745.16 668.30 746.52
  Q 667.63 747.01 658.25 755.81
  C 656.50 757.46 654.80 759.63 653.28 761.42
  Q 652.33 762.54 651.20 763.58
  Q 641.54 772.47 639.96 774.21
  Q 637.83 776.58 635.40 778.59
  Q 634.79 779.09 634.47 778.38
  Q 632.20 773.37 629.97 768.81
  Q 627.50 763.76 625.79 759.13
  Q 622.67 750.70 617.00 736.48
  Q 616.80 735.97 615.27 730.70
  Q 615.13 730.21 615.42 729.80
  Q 618.29 725.67 619.73 724.24
  Q 633.82 710.28 640.08 703.84
  Q 644.58 699.20 648.63 695.88
  Q 649.27 695.36 649.79 694.56
  Z"
/>
<path fill="#33141e" d="
  M 265.89 711.23
  L 232.03 745.09
  A 0.69 0.69 0.0 0 1 231.06 745.09
  Q 209.90 724.45 189.80 704.06
  Q 177.49 691.59 173.71 687.91
  Q 168.94 683.29 165.48 679.53
  Q 161.75 675.49 159.51 673.45
  C 156.04 670.31 152.73 666.04 149.44 663.47
  C 145.47 660.37 149.19 657.67 152.12 656.62
  Q 169.60 650.37 171.86 649.35
  Q 180.79 645.32 189.88 641.64
  Q 192.07 640.76 194.30 640.09
  Q 194.78 639.95 195.19 640.25
  Q 198.81 642.93 199.50 643.76
  Q 203.42 648.47 207.94 652.59
  Q 213.26 657.42 215.52 659.85
  Q 220.69 665.41 222.85 667.77
  Q 224.52 669.61 227.42 671.74
  Q 229.95 673.60 231.17 675.52
  Q 232.71 677.95 234.90 679.71
  Q 237.45 681.76 241.51 686.39
  Q 242.52 687.55 244.44 688.80
  C 246.88 690.40 248.04 692.36 249.63 694.38
  Q 250.93 696.02 252.70 697.62
  Q 259.50 703.75 265.90 710.61
  A 0.45 0.45 0.0 0 1 265.89 711.23
  Z"
/>
<path fill="#2d0c13" d="
  M 645.62 802.01
  L 801.65 646.30
  A 2.63 2.63 0.0 0 1 804.49 645.72
  L 848.31 663.50
  A 2.63 2.63 0.0 0 1 849.18 667.80
  L 667.03 849.58
  A 2.63 2.63 0.0 0 1 662.73 848.71
  L 645.04 804.86
  A 2.63 2.63 0.0 0 1 645.62 802.01
  Z"
/>
<path fill="#33141e" d="
  M 99.43 679.28
  Q 102.49 678.21 105.35 676.67
  Q 114.20 671.91 123.73 669.62
  Q 125.33 669.23 127.28 670.97
  Q 129.74 673.17 151.14 694.61
  Q 230.00 773.64 321.83 865.39
  Q 324.33 867.89 326.26 869.98
  A 1.01 1.01 0.0 0 1 326.48 870.99
  Q 324.30 877.49 322.61 880.82
  Q 319.02 887.90 310.02 912.72
  Q 309.68 913.66 307.12 915.81
  Q 305.90 916.83 304.20 916.03
  Q 303.04 915.49 302.67 915.12
  Q 181.76 794.10 97.79 710.22
  Q 86.50 698.95 78.88 690.97
  Q 76.45 688.43 78.51 687.41
  C 80.59 686.38 82.51 685.37 84.29 684.71
  Q 90.86 682.26 99.43 679.28
  Z"
/>
<path fill="#2d0c13" d="
  M 871.45 677.15
  Q 872.56 674.88 874.80 673.07
  A 1.17 1.15 34.8 0 1 875.89 672.88
  Q 879.30 674.06 882.99 676.51
  Q 885.68 678.30 888.09 679.08
  Q 900.33 683.07 916.09 690.01
  C 917.72 690.73 920.05 691.13 921.80 692.18
  Q 923.04 692.93 922.09 694.03
  Q 919.70 696.83 915.89 700.64
  Q 860.33 756.13 696.50 920.00
  Q 695.12 921.38 693.45 922.37
  A 0.83 0.82 46.2 0 1 692.58 922.35
  Q 691.41 921.60 690.06 918.23
  Q 679.63 892.24 677.50 884.94
  Q 677.36 884.46 676.95 884.18
  Q 676.08 883.59 675.80 882.96
  Q 674.48 879.97 672.73 876.14
  Q 672.52 875.68 672.81 875.26
  Q 674.53 872.76 676.93 871.61
  Q 677.37 871.40 677.59 870.96
  Q 678.33 869.47 680.02 867.77
  Q 695.62 852.09 737.93 809.89
  Q 737.99 809.83 740.77 807.32
  Q 741.81 806.37 742.68 805.35
  Q 743.18 804.75 744.55 803.36
  Q 781.97 765.39 803.98 743.98
  Q 809.87 738.24 811.28 736.77
  Q 822.48 725.09 866.01 681.76
  Q 869.56 678.23 870.72 677.81
  Q 871.22 677.63 871.45 677.15
  Z"
/>
<path fill="#33141e" d="
  M 383.21 724.24
  A 0.83 0.82 35.5 0 1 383.36 725.11
  Q 378.98 735.72 376.21 743.62
  C 374.81 747.60 372.10 751.18 370.73 754.98
  Q 369.37 758.79 364.76 771.26
  A 3.23 3.23 0.0 0 1 359.45 772.42
  L 300.78 713.75
  A 1.22 1.22 0.0 0 1 300.78 712.03
  Q 326.79 685.82 332.68 679.93
  Q 335.10 677.51 338.03 679.48
  C 342.87 682.73 345.85 686.33 350.92 691.78
  Q 354.36 695.47 357.42 698.32
  Q 361.75 702.35 368.10 709.04
  Q 370.81 711.90 376.38 717.12
  Q 379.42 719.97 383.21 724.24
  Z"
/>
<path fill="#33141e" d="
  M 249.72 762.57
  Q 254.89 756.62 264.76 747.09
  Q 265.97 745.92 273.84 738.01
  Q 278.09 733.73 283.35 729.34
  Q 283.73 729.01 284.13 729.32
  C 286.18 730.89 287.77 732.98 289.85 734.44
  Q 293.37 736.92 295.55 739.92
  Q 297.37 742.43 299.95 744.72
  Q 301.71 746.28 304.84 749.64
  Q 306.86 751.82 309.53 753.79
  Q 311.34 755.12 313.63 758.06
  Q 315.75 760.78 318.03 762.78
  Q 321.93 766.21 330.12 774.85
  Q 333.73 778.65 340.73 785.11
  Q 343.98 788.11 349.94 794.52
  Q 351.94 796.68 353.03 798.49
  Q 353.24 798.83 353.20 799.24
  Q 352.85 803.36 352.05 805.76
  Q 345.22 826.26 335.93 847.35
  A 1.18 1.17 24.9 0 1 334.33 847.93
  C 332.05 846.81 330.99 844.90 327.92 841.67
  C 323.52 837.03 318.61 832.80 314.15 828.25
  Q 307.67 821.61 305.12 819.21
  C 299.19 813.63 293.68 807.60 288.60 802.70
  Q 281.67 796.01 278.26 792.51
  Q 274.38 788.53 267.62 781.96
  Q 256.49 771.15 249.75 764.01
  A 1.08 1.08 0.0 0 1 249.72 762.57
  Z"
/>
<path fill="#63071c" d="
  M 585.76 758.33
  Q 588.03 763.77 588.06 763.83
  Q 588.75 765.49 592.00 774.12
  Q 593.92 779.22 595.51 782.27
  Q 597.85 786.75 599.24 790.64
  Q 599.41 791.11 598.94 791.26
  Q 596.81 791.97 594.25 791.98
  Q 570.35 792.02 513.01 791.99
  A 1.99 1.99 0.0 0 1 511.02 790.00
  L 511.02 742.29
  Q 511.02 741.39 511.92 741.33
  Q 517.07 741.04 518.01 741.03
  Q 545.95 740.93 577.09 741.01
  Q 577.88 741.02 578.22 741.73
  Q 582.92 751.55 585.76 758.33
  Z"
/>
<path fill="#63071c" d="
  M 409.95 761.96
  Q 411.15 758.66 416.45 744.45
  A 1.64 1.64 0.0 0 1 417.85 743.38
  Q 421.80 743.05 422.75 743.04
  Q 444.92 742.95 485.47 743.03
  Q 486.00 743.03 486.00 743.55
  Q 486.01 766.32 486.00 779.49
  Q 486.00 786.28 485.58 791.31
  Q 485.44 792.99 483.76 792.99
  Q 447.74 793.02 405.00 792.99
  Q 400.38 792.99 398.23 792.42
  Q 397.74 792.28 397.74 791.77
  Q 397.72 790.12 398.48 788.48
  Q 403.61 777.34 407.89 765.89
  Q 408.19 765.08 408.94 763.93
  Q 409.61 762.89 409.95 761.96
  Z"
/>
<path fill="#63071c" d="
  M 621.99 843.98
  Q 622.38 844.51 622.40 844.55
  Q 626.09 853.04 629.36 863.10
  Q 629.59 863.81 628.85 863.84
  Q 625.22 863.96 620.75 863.96
  Q 527.13 864.04 509.99 863.98
  C 496.14 863.94 484.36 864.43 468.00 864.78
  Q 458.26 864.99 448.00 864.99
  Q 373.49 865.00 370.69 864.94
  Q 369.77 864.92 367.59 864.55
  A 1.06 1.05 -82.5 0 1 366.72 863.40
  Q 367.02 860.55 368.36 857.62
  C 369.75 854.61 372.74 849.62 374.26 845.38
  Q 378.98 832.20 385.86 816.29
  A 0.48 0.47 11.0 0 1 386.30 816.00
  L 609.15 816.00
  A 1.23 1.23 0.0 0 1 610.30 816.80
  Q 611.25 819.33 611.72 820.48
  Q 612.41 822.17 613.51 823.94
  Q 615.94 827.82 616.14 828.40
  Q 618.78 835.85 621.53 843.26
  Q 621.60 843.44 621.99 843.98
  Z"
/>
<path fill="#63071c" d="
  M 335.51 933.44
  Q 335.89 930.92 336.74 928.99
  Q 345.57 908.96 350.48 894.48
  Q 351.90 890.30 354.18 887.68
  Q 355.20 886.50 357.75 886.35
  Q 363.44 886.02 366.00 886.01
  Q 396.02 885.97 472.22 886.01
  Q 475.33 886.01 478.26 886.27
  Q 482.77 886.66 484.31 886.84
  A 1.13 1.12 -89.7 0 1 485.30 887.85
  Q 485.74 892.64 485.85 898.83
  Q 486.22 919.75 485.94 933.48
  Q 485.93 933.98 485.43 933.98
  Q 472.93 933.90 349.00 934.11
  Q 342.30 934.12 335.72 933.69
  A 0.22 0.22 0.0 0 1 335.51 933.44
  Z"
/>
<path fill="#63071c" d="
  M 660.77 934.00
  L 511.37 934.00
  A 0.34 0.34 0.0 0 1 511.03 933.65
  L 512.20 887.32
  A 0.34 0.34 0.0 0 1 512.54 886.99
  L 642.01 887.00
  A 0.34 0.34 0.0 0 1 642.33 887.21
  L 661.08 933.53
  A 0.34 0.34 0.0 0 1 660.77 934.00
  Z"
/>
</svg>
